<?xml version="1.0" encoding="UTF-8" standalone="no"?>
<!-- Created with Inkscape (http://www.inkscape.org/) -->

<svg
   xmlns:dc="http://purl.org/dc/elements/1.1/"
   xmlns:cc="http://creativecommons.org/ns#"
   xmlns:rdf="http://www.w3.org/1999/02/22-rdf-syntax-ns#"
   xmlns:svg="http://www.w3.org/2000/svg"
   xmlns="http://www.w3.org/2000/svg"
   xmlns:sodipodi="http://sodipodi.sourceforge.net/DTD/sodipodi-0.dtd"
   xmlns:inkscape="http://www.inkscape.org/namespaces/inkscape"
   width="210mm"
   height="297mm"
   viewBox="0 0 210 297"
   version="1.1"
   id="svg8"
   inkscape:export-filename="/home/atfoc/bitmap.png"
   inkscape:export-xdpi="37.319855"
   inkscape:export-ydpi="37.319855"
   inkscape:version="0.92.2 5c3e80d, 2017-08-06"
   sodipodi:docname="times_table.svg">
  <defs
     id="defs2" />
  <sodipodi:namedview
     id="base"
     pagecolor="#ffffff"
     bordercolor="#666666"
     borderopacity="1.0"
     inkscape:pageopacity="0.0"
     inkscape:pageshadow="2"
     inkscape:zoom="1.0606061"
     inkscape:cx="163.23069"
     inkscape:cy="505.80808"
     inkscape:document-units="mm"
     inkscape:current-layer="layer1"
     showgrid="false"
     showguides="true"
     inkscape:guide-bbox="true"
     inkscape:window-width="1680"
     inkscape:window-height="1026"
     inkscape:window-x="0"
     inkscape:window-y="24"
     inkscape:window-maximized="0">
    <sodipodi:guide
       position="97.900826,161.40407"
       orientation="0,1"
       id="guide820"
       inkscape:locked="false" />
    <sodipodi:guide
       position="94.372868,161.40407"
       orientation="1,0"
       id="guide822"
       inkscape:locked="false" />
  </sodipodi:namedview>
  <metadata
     id="metadata5">
    <rdf:RDF>
      <cc:Work
         rdf:about="">
        <dc:format>image/svg+xml</dc:format>
        <dc:type
           rdf:resource="http://purl.org/dc/dcmitype/StillImage" />
        <dc:title></dc:title>
      </cc:Work>
    </rdf:RDF>
  </metadata>
  <g
     inkscape:label="base"
     inkscape:groupmode="layer"
     id="layer1">
    <circle
       style="opacity:1;fill:#ffffff;fill-opacity:1;stroke:#00000e;stroke-width:0.206;stroke-miterlimit:4;stroke-dasharray:none;stroke-dashoffset:0;stroke-opacity:1"
       id="path818"
       cx="94.498978"
       cy="135.6394"
       r="33.927143" />
    <path
       style="opacity:1;fill:#00ffff;fill-opacity:1;stroke:#00000e;stroke-width:0.82852644;stroke-miterlimit:4;stroke-dasharray:none;stroke-dashoffset:0;stroke-opacity:1"
       d="m 349.68024,545.05214 c -9.48662,-2.19064 -18.4743,-9.10624 -22.54711,-17.34896 -3.41533,-6.91211 -4.60432,-15.98993 -2.89071,-22.07043 0.39955,-1.41775 0.91508,-3.30052 1.14562,-4.18393 1.4254,-5.46193 7.21993,-12.79491 13.30963,-16.84334 7.30987,-4.85959 16.88702,-6.53427 25.53214,-4.4646 11.47703,2.74765 20.41637,11.07548 24.25933,22.59986 1.04554,3.13538 1.20523,4.42632 1.20523,9.74285 0,5.31652 -0.15969,6.60747 -1.20523,9.74285 -3.57336,10.71589 -11.72408,18.83367 -22.26967,22.1797 -3.79655,1.20461 -12.62659,1.5495 -16.53923,0.646 z m -6.9143,-23.67951 3.92854,-5.93729 3.97333,5.94912 3.97332,5.94913 h 2.37952 c 1.77592,0 2.29078,-0.14948 2.02968,-0.58929 -0.19242,-0.32411 -2.43601,-3.71866 -4.98576,-7.54345 l -4.63592,-6.95416 4.27428,-6.38633 c 2.35085,-3.51248 4.39248,-6.69435 4.53695,-7.07083 0.20773,-0.54136 -0.21618,-0.6821 -2.02706,-0.67297 l -2.28972,0.0115 -3.45711,5.23012 -3.45712,5.23013 -3.50259,-5.24167 -3.50259,-5.24167 h -2.37883 c -1.77518,0 -2.29015,0.14953 -2.02934,0.58928 0.19222,0.32411 2.22352,3.3997 4.514,6.83464 l 4.16452,6.24535 -5.20022,7.77965 -5.20021,7.77965 2.48189,-0.0118 2.48189,-0.0118 z m 28.93376,-8.85156 0.13769,-3.49823 3.05587,1.83981 c 2.62407,1.57984 3.14944,1.74624 3.71804,1.17764 1.05266,-1.05267 0.314,-2.00868 -2.74519,-3.55295 -1.56758,-0.79132 -2.85015,-1.53139 -2.85015,-1.64461 0,-0.11322 1.37893,-0.977 3.06428,-1.9195 3.09529,-1.73099 3.6104,-2.47811 2.4007,-3.48207 -0.52551,-0.43614 -1.31024,-0.15493 -3.77143,1.35148 l -3.10784,1.90221 v -3.53063 c 0,-3.45172 -0.0263,-3.53063 -1.17857,-3.53063 -1.15223,0 -1.17857,0.0789 -1.17857,3.53063 v 3.53063 l -3.07259,-1.88063 c -1.68992,-1.03435 -3.24694,-1.88063 -3.46004,-1.88063 -0.2131,0 -0.60915,0.48657 -0.88012,1.08127 -0.4591,1.00762 -0.26794,1.20416 2.80647,2.8855 3.65173,1.99705 3.6845,1.80812 -0.70749,4.07889 -2.39027,1.23583 -2.66208,1.51671 -2.23675,2.31145 0.78357,1.46411 1.04805,1.43317 4.2552,-0.49769 l 3.0596,-1.84204 0.13769,3.53417 c 0.13187,3.38467 0.18586,3.53416 1.2766,3.53416 1.08957,0 1.14487,-0.15155 1.2766,-3.49823 z"
       id="path1274"
       inkscape:connector-curvature="0"
       transform="scale(0.26458333)" />
    <text
       xml:space="preserve"
       style="font-style:normal;font-weight:normal;font-size:10.58333302px;line-height:1.25;font-family:sans-serif;letter-spacing:0px;word-spacing:0px;fill:#000000;fill-opacity:1;stroke:none;stroke-width:0.26458332"
       x="158.60855"
       y="-5.291707"
       id="text1324-1"
       transform="rotate(48.674191)"><tspan
         sodipodi:role="line"
         id="tspan1322-2"
         x="158.60855"
         y="-5.291707"
         style="stroke-width:0.26458332">2X</tspan></text>
    <text
       xml:space="preserve"
       style="font-style:normal;font-weight:normal;font-size:10.58333302px;line-height:1.25;font-family:sans-serif;letter-spacing:0px;word-spacing:0px;fill:#000000;fill-opacity:1;stroke:none;stroke-width:0.26458332"
       x="118.49891"
       y="-127.66556"
       id="text1324-1-9"
       transform="rotate(94.256168)"><tspan
         sodipodi:role="line"
         id="tspan1322-2-3"
         x="118.49891"
         y="-127.66556"
         style="stroke-width:0.26458332">3X</tspan></text>
    <text
       xml:space="preserve"
       style="font-style:normal;font-weight:normal;font-size:10.58333302px;line-height:1.25;font-family:sans-serif;letter-spacing:0px;word-spacing:0px;fill:#000000;fill-opacity:1;stroke:none;stroke-width:0.26458332"
       x="37.141983"
       y="-182.16675"
       id="text1324-1-9-1"
       transform="rotate(129.17086)"
       inkscape:transform-center-x="-0.24946429"
       inkscape:transform-center-y="-3.8666964"><tspan
         sodipodi:role="line"
         id="tspan1322-2-3-9"
         x="37.141983"
         y="-182.16675"
         style="stroke-width:0.26458332">4X</tspan></text>
    <text
       xml:space="preserve"
       style="font-style:normal;font-weight:normal;font-size:10.58333302px;line-height:1.25;font-family:sans-serif;letter-spacing:0px;word-spacing:0px;fill:#000000;fill-opacity:1;stroke:none;stroke-width:0.26458332"
       x="-26.43572"
       y="-186.5486"
       id="text1324-1-9-1-4"
       transform="rotate(153.12641)"
       inkscape:transform-center-x="0.076031218"
       inkscape:transform-center-y="-0.44326778"><tspan
         sodipodi:role="line"
         id="tspan1322-2-3-9-7"
         x="-26.43572"
         y="-186.5486"
         style="stroke-width:0.26458332">5X</tspan></text>
    <text
       xml:space="preserve"
       style="font-style:normal;font-weight:normal;font-size:10.58333302px;line-height:1.25;font-family:sans-serif;letter-spacing:0px;word-spacing:0px;fill:#000000;fill-opacity:1;stroke:none;stroke-width:0.26458332"
       x="-143.49084"
       y="-118.43305"
       id="text1324-1-9-1-4-8"
       transform="rotate(-159.82558)"
       inkscape:transform-center-x="0.14740591"
       inkscape:transform-center-y="0.1688625"><tspan
         sodipodi:role="line"
         id="tspan1322-2-3-9-7-4"
         x="-143.49084"
         y="-118.43305"
         style="stroke-width:0.26458332">6X</tspan></text>
    <text
       xml:space="preserve"
       style="font-style:normal;font-weight:normal;font-size:10.58333302px;line-height:1.25;font-family:sans-serif;letter-spacing:0px;word-spacing:0px;fill:#000000;fill-opacity:1;stroke:none;stroke-width:0.26458332"
       x="-166.46179"
       y="-49.811054"
       id="text1324-1-9-1-4-8-5"
       transform="rotate(-134.14662)"
       inkscape:transform-center-x="0.14715092"
       inkscape:transform-center-y="0.066679856"><tspan
         sodipodi:role="line"
         id="tspan1322-2-3-9-7-4-0"
         x="-166.46179"
         y="-49.811054"
         style="stroke-width:0.26458332">7X</tspan></text>
    <text
       xml:space="preserve"
       style="font-style:normal;font-weight:normal;font-size:10.58333302px;line-height:1.25;font-family:sans-serif;letter-spacing:0px;word-spacing:0px;fill:#000000;fill-opacity:1;stroke:none;stroke-width:0.26458332"
       x="-140.62117"
       y="75.056694"
       id="text1324-1-9-1-4-8-5-3"
       transform="rotate(-88.364599)"
       inkscape:transform-center-x="0.29289537"
       inkscape:transform-center-y="-0.074518758"><tspan
         sodipodi:role="line"
         id="tspan1322-2-3-9-7-4-0-6"
         x="-140.62117"
         y="75.056694"
         style="stroke-width:0.26458332">8X</tspan></text>
    <text
       xml:space="preserve"
       style="font-style:normal;font-weight:normal;font-size:10.58333302px;line-height:1.25;font-family:sans-serif;letter-spacing:0px;word-spacing:0px;fill:#000000;fill-opacity:1;stroke:none;stroke-width:0.26458332"
       x="-48.963089"
       y="136.9183"
       id="text1324-1-9-1-4-8-5-3-1"
       transform="rotate(-48.758793)"
       inkscape:transform-center-x="0.17552314"
       inkscape:transform-center-y="-0.15193019"><tspan
         sodipodi:role="line"
         id="tspan1322-2-3-9-7-4-0-6-0"
         x="-48.963089"
         y="136.9183"
         style="stroke-width:0.26458332">9X</tspan></text>
    <text
       xml:space="preserve"
       style="font-style:normal;font-weight:normal;font-size:8.51271439px;line-height:1.25;font-family:sans-serif;letter-spacing:0px;word-spacing:0px;fill:#000000;fill-opacity:1;stroke:none;stroke-width:0.21281786"
       x="51.35387"
       y="125.40321"
       id="text1324-1-9-1-4-8-5-3-1-6"
       transform="matrix(0.85804015,-0.32928275,0.28661151,1.0554562,0,0)"
       inkscape:transform-center-x="0.013397281"
       inkscape:transform-center-y="-0.14487099"><tspan
         sodipodi:role="line"
         id="tspan1322-2-3-9-7-4-0-6-0-3"
         x="51.35387"
         y="125.40321"
         style="stroke-width:0.21281786">10X</tspan></text>
    <path
       style="opacity:1;fill:#3fcaf4;fill-opacity:1;stroke:none;stroke-width:0.39020923;stroke-miterlimit:4;stroke-dasharray:none;stroke-dashoffset:0;stroke-opacity:1"
       d="m 296.17377,427.98002 c -7.08919,-9.78804 -13.07699,-18.04412 -13.30623,-18.34685 -0.56091,-0.74073 7.32239,-5.91704 15.3777,-10.09724 16.4293,-8.52578 33.15419,-13.12087 52.26,-14.35819 l 5.06786,-0.32821 v 15.22421 15.2242 l -1.29643,-1.12916 c -3.8412,-3.3456 -8.60357,-8.30141 -8.60357,-8.95304 0,-0.4109 0.63392,-3.49195 1.40869,-6.84677 0.77479,-3.35482 1.41122,-6.34499 1.41429,-6.64483 0.004,-0.40172 -0.41413,-0.41634 -1.58968,-0.0556 -1.52977,0.4695 -1.62839,0.64293 -2.40216,4.22419 -0.4438,2.05402 -1.01696,4.49531 -1.27368,5.42508 l -0.46677,1.69051 -3.38858,-3.36596 c -1.86371,-1.85127 -3.63495,-3.36596 -3.93608,-3.36596 -0.30113,0 -1.13105,0.22187 -1.84427,0.49303 l -1.29675,0.49303 4.56606,4.58326 c 2.51134,2.5208 4.56607,4.93966 4.56607,5.37525 0,0.4356 -0.74145,4.0216 -1.64767,7.96889 -0.90623,3.9473 -1.57705,7.24753 -1.49074,7.33385 0.0863,0.0863 0.81911,-0.0739 1.62842,-0.35601 1.65224,-0.57597 1.58736,-0.43039 2.92428,-6.56272 0.537,-2.46322 1.09297,-4.86172 1.23549,-5.33 0.21147,-0.69491 0.98626,-0.15331 4.21503,2.94643 3.98768,3.82833 4.70273,4.20009 6.36618,3.30984 0.88392,-0.47306 0.91187,-0.25629 0.91187,7.07142 v 7.55945 h -2.65021 c -3.42638,0 -11.63856,1.21071 -16.44265,2.42411 -7.78101,1.9653 -18.66778,6.75339 -24.53715,10.79162 -1.118,0.76921 -2.22334,1.39855 -2.45631,1.39855 -0.23297,0 -6.22382,-8.00839 -13.31301,-17.79642 z m 17.6779,4.23712 c 1.815,-0.66484 3.3785,-1.27037 3.47445,-1.34562 0.0959,-0.0753 0.0345,-0.88281 -0.13655,-1.79456 l -0.31099,-1.65774 -2.26337,0.89214 -2.26337,0.89214 -2.50798,-9.27424 c -1.37939,-5.10084 -2.69601,-9.96371 -2.92582,-10.80639 -0.55494,-2.03491 -1.43699,-1.9691 -5.06871,0.3782 -2.79894,1.80904 -2.94004,1.98845 -2.66104,3.38348 0.16205,0.81023 0.39418,1.57269 0.51585,1.69436 0.12167,0.12168 1.09783,-0.35888 2.16923,-1.06791 1.07141,-0.70902 2.10651,-1.11131 2.30022,-0.89399 0.41802,0.46899 4.72808,16.21236 4.72808,17.27028 0,0.42921 -0.72889,0.96324 -1.76786,1.29526 -2.31279,0.73908 -2.4185,0.88602 -1.92744,2.67926 l 0.41653,1.52108 2.46438,-0.97848 c 1.35542,-0.53816 3.94939,-1.52244 5.76439,-2.18727 z m 16.65552,-6.18359 c 2.12585,-1.51374 2.96792,-3.78238 2.95749,-7.96782 -0.0163,-6.56349 -3.07594,-14.61276 -6.33234,-16.65936 -2.03406,-1.27838 -5.52488,-0.99893 -7.21227,0.57735 -2.07885,1.94196 -2.69543,3.66625 -2.67929,7.49272 0.0312,7.3945 3.62327,15.85071 7.42797,17.48636 1.45654,0.62617 4.28664,0.17572 5.83844,-0.92925 z"
       id="path1490"
       inkscape:connector-curvature="0"
       transform="scale(0.26458333)" />
    <path
       style="opacity:1;fill:#3fcaf4;fill-opacity:1;stroke:none;stroke-width:0.39020923;stroke-miterlimit:4;stroke-dasharray:none;stroke-dashoffset:0;stroke-opacity:1"
       d="m 324.53159,422.4516 c -1.64247,-1.87068 -3.61252,-7.56971 -4.097,-11.85199 -0.52963,-4.6813 1.20633,-7.35313 4.27683,-6.58248 2.37998,0.59734 5.55488,8.80135 5.60989,14.49604 0.0261,2.70204 -0.13025,3.31487 -1.11253,4.36071 -1.56484,1.6661 -2.95365,1.54071 -4.67719,-0.42228 z"
       id="path1492"
       inkscape:connector-curvature="0"
       transform="scale(0.26458333)" />
    <path
       style="opacity:1;fill:#3fcaf4;fill-opacity:1;stroke:none;stroke-width:0.39020923;stroke-miterlimit:4;stroke-dasharray:none;stroke-dashoffset:0;stroke-opacity:1"
       d="m 400.1231,443.59128 c -9.20536,-6.3267 -25.0728,-11.51248 -37.59643,-12.28721 l -4.59643,-0.28434 v -23.08531 -23.08531 l 5.53929,0.32265 c 18.86534,1.09884 36.65581,5.96214 52.87281,14.45361 5.4068,2.83109 13.24505,7.70004 13.24505,8.22754 0,0.25927 -26.10662,36.34753 -26.80357,37.05168 -0.16697,0.1687 -1.36429,-0.42229 -2.66072,-1.31331 z m 5.7047,-9.48269 c -0.85077,-2.7886 -4.05041,-15.56739 -4.05235,-16.18437 -10e-4,-0.4098 0.89926,-1.39434 2.00122,-2.18787 1.10197,-0.79353 4.09813,-3.05229 6.65814,-5.01948 4.58464,-3.52297 4.63567,-3.58388 3.39707,-4.0548 -3.12629,-1.18861 -3.18111,-1.1705 -8.31256,2.7463 -3.139,2.39598 -5.03109,3.55997 -5.21794,3.21 -0.16124,-0.30199 -0.873,-2.77657 -1.58169,-5.49907 -0.70869,-2.7225 -1.46451,-5.2814 -1.67961,-5.68645 -0.36647,-0.6901 -3.72975,-2.03649 -4.1178,-1.64844 -0.0975,0.0975 0.68721,3.46897 1.74388,7.49207 1.05668,4.0231 1.92123,7.53587 1.92123,7.80614 0,0.40182 -7.74719,6.58705 -13.49276,10.77241 l -1.32623,0.96609 1.80992,0.75623 c 0.99546,0.41593 2.07621,0.75624 2.40167,0.75624 0.32546,0 3.08574,-1.92899 6.13397,-4.28665 3.05806,-2.36527 5.67248,-4.07374 5.83282,-3.81164 0.15984,0.26125 1.03126,3.38879 1.9365,6.95009 1.55116,6.1024 1.72752,6.51066 3.06428,7.09319 2.06655,0.90055 3.18668,0.83444 2.88024,-0.16999 z m -27.67225,-10.08821 c 0.72732,-2.08637 0.77814,-2.00934 -1.95745,-2.96666 -1.36125,-0.47637 -2.65046,-1.02255 -2.8649,-1.21375 -0.21445,-0.19119 1.42965,-5.64356 3.65357,-12.11638 2.22391,-6.47281 4.04347,-11.89149 4.04347,-12.04149 0,-0.55509 -4.58265,-1.75615 -7.8289,-2.05187 l -3.35033,-0.3052 -0.53895,1.54606 c -0.29643,0.85033 -0.53896,1.70161 -0.53896,1.89174 0,0.19014 1.58063,0.49381 3.51251,0.67485 l 3.51251,0.32915 -3.49739,10.16112 c -1.92357,5.58861 -3.57546,10.23919 -3.67088,10.3346 -0.0954,0.0954 -1.41514,-0.25372 -2.93273,-0.77584 -1.51759,-0.52213 -2.92734,-0.78123 -3.13279,-0.57578 -0.20546,0.20545 -0.49684,1.00335 -0.64753,1.7731 l -0.27398,1.39956 7.69014,2.68057 c 4.22958,1.47432 7.82849,2.69414 7.99759,2.71072 0.1691,0.0166 0.54035,-0.63795 0.825,-1.4545 z"
       id="path1494"
       inkscape:connector-curvature="0"
       transform="scale(0.26458333)" />
    <path
       style="opacity:1;fill:#3fcaf4;fill-opacity:1;stroke:none;stroke-width:0.39020923;stroke-miterlimit:4;stroke-dasharray:none;stroke-dashoffset:0;stroke-opacity:1"
       d="m 431.98823,481.5 c -5.13231,-12.78409 -14.78013,-25.37867 -25.93038,-33.85037 l -1.5677,-1.1911 13.31307,-18.37319 c 7.32219,-10.10525 13.45658,-18.53187 13.63197,-18.72581 0.53432,-0.59086 10.31543,7.4954 16.06672,13.28271 2.98191,3.0006 6.87227,7.25885 8.64523,9.46278 4.89836,6.08903 11.23499,15.86451 14.60761,22.53512 3.10849,6.14816 7.26073,15.95829 6.89048,16.27949 -0.11431,0.0992 -9.78992,3.28645 -21.50135,7.08282 -11.71143,3.79638 -21.58501,7.01437 -21.9413,7.15109 -0.45421,0.17429 -1.11596,-0.91756 -2.21435,-3.65354 z m 15.52132,-14.30221 c 1.26525,-4.60419 2.52278,-8.50865 2.7945,-8.67659 0.27172,-0.16793 3.77703,-0.70135 7.78959,-1.18538 4.01256,-0.48402 7.56676,-1.04915 7.89822,-1.25584 0.44567,-0.2779 0.21069,-0.76902 -0.90203,-1.88529 l -1.50469,-1.5095 -6.03816,0.74576 c -3.32099,0.41018 -6.12487,0.66061 -6.23084,0.55653 -0.10597,-0.10408 0.48787,-2.74876 1.31965,-5.87706 0.83178,-3.1283 1.39216,-6.06644 1.24529,-6.52919 -0.28892,-0.91032 -2.49366,-3.16345 -2.7778,-2.83879 -0.0954,0.10906 -1.08056,3.63005 -2.18913,7.82442 -1.72006,6.50794 -2.16148,7.66029 -3.01047,7.85905 -0.54718,0.1281 -4.74977,0.70784 -9.33909,1.28831 -9.07779,1.14818 -9.05412,1.13465 -6.37281,3.64211 l 1.1624,1.08703 6.97604,-0.96688 c 3.83682,-0.53178 7.06033,-0.88259 7.16336,-0.77956 0.14594,0.14594 -2.56591,10.75592 -3.39956,13.30062 -0.18688,0.57046 2.54807,4.13849 2.90139,3.78517 0.11752,-0.11752 1.24888,-3.98074 2.51414,-8.58492 z m -19.80788,-16.23243 c 0,-0.16 -1.90928,-2.43724 -4.24286,-5.06053 -2.33357,-2.6233 -4.24285,-4.83967 -4.24285,-4.92528 0,-0.0856 2.91696,0.0138 6.48214,0.22096 8.30353,0.48243 11.50799,0.18307 14.06199,-1.31368 2.71912,-1.59351 3.97015,-3.7337 3.97015,-6.79189 0,-4.31776 -1.99443,-7.40481 -6.78392,-10.50041 -1.53496,-0.99209 -2.91704,-1.79518 -3.07131,-1.78464 -0.15426,0.0105 -0.9953,0.63054 -1.86896,1.37779 l -1.58849,1.35864 2.53134,1.27872 c 4.78458,2.41695 6.53033,4.43249 6.53538,7.54535 0.002,1.49702 -0.29317,2.19922 -1.35337,3.21496 -1.86707,1.78876 -4.89157,2.1177 -14.68657,1.59726 -7.79977,-0.41442 -8.0395,-0.39925 -9.43881,0.59715 -0.78968,0.5623 -1.37235,1.19668 -1.29482,1.40974 0.0775,0.21306 2.85986,3.47537 6.18296,7.24958 l 6.042,6.86219 1.383,-1.0225 c 0.76065,-0.56237 1.383,-1.1534 1.383,-1.31341 z"
       id="path1496"
       inkscape:connector-curvature="0"
       transform="scale(0.26458333)" />
    <path
       style="opacity:1;fill:#3fcaf4;fill-opacity:1;stroke:none;stroke-width:0.39020923;stroke-miterlimit:4;stroke-dasharray:none;stroke-dashoffset:0;stroke-opacity:1"
       d="m 456.96775,544.09415 c -12.03616,-3.90883 -21.96406,-7.34737 -22.06201,-7.64122 -0.0979,-0.29384 0.27329,-2.30211 0.82497,-4.46284 3.13815,-12.2909 3.05134,-27.25604 -0.23201,-39.99788 -0.63249,-2.45455 -1.10485,-4.50794 -1.04969,-4.56311 0.0552,-0.0552 9.94837,-3.29965 21.9849,-7.20997 15.72522,-5.10867 21.98199,-6.9521 22.23063,-6.54979 0.62666,1.01396 3.19708,11.37104 4.15594,16.74569 3.36093,18.83882 2.09168,40.91658 -3.38443,58.87017 l -0.58438,1.9159 z m 16.61854,-10.71892 0.28887,-2.20837 -4.92908,-3.85977 c -2.71099,-2.12288 -4.83228,-4.01638 -4.71399,-4.2078 0.1183,-0.19141 2.52595,-1.6421 5.35034,-3.22376 l 5.13524,-2.87573 0.25631,-2.25811 c 0.14097,-1.24196 0.20203,-2.31398 0.13568,-2.38228 -0.0663,-0.0683 -3.32865,1.69025 -7.24955,3.9079 l -7.12892,4.03209 -7.20405,-5.66703 c -3.96222,-3.11686 -7.36315,-5.67095 -7.55761,-5.67576 -0.19447,-0.005 -0.35357,1.02119 -0.35357,2.27998 v 2.28872 l 5.04651,3.95771 c 2.77558,2.17674 5.33468,4.17679 5.68687,4.44455 0.48786,0.3709 -0.87926,1.3252 -5.74062,4.00714 -6.09587,3.36301 -6.38156,3.58704 -6.39402,5.01389 -0.007,0.82147 -0.1418,1.82915 -0.29918,2.23929 -0.15738,0.41013 -0.0579,0.7457 0.22113,0.7457 0.27901,0 3.90314,-1.90929 8.05362,-4.24286 4.15048,-2.33357 7.62561,-4.24286 7.7225,-4.24286 0.0969,0 3.12492,2.31395 6.72896,5.14211 3.60404,2.82816 6.57595,5.1087 6.60424,5.06786 0.0283,-0.0408 0.18144,-1.06801 0.34032,-2.28261 z m -13.99807,-29.18189 c 0.83762,-0.51768 1.78893,-1.54212 2.11401,-2.27654 l 0.59106,-1.3353 0.85275,1.72355 c 1.12269,2.26917 3.02618,3.34282 5.92651,3.34282 4.6872,0 7.29249,-3.28448 7.58701,-9.56491 0.0947,-2.01962 0.0303,-4.61837 -0.14316,-5.775 -0.3125,-2.08387 -0.33235,-2.10294 -2.18842,-2.10294 h -1.87307 l 0.28997,2.475 c 0.15949,1.36125 0.35456,2.69399 0.43349,2.96165 0.0789,0.26765 -0.0373,1.64658 -0.25834,3.06428 -0.70467,4.52005 -4.21889,6.17107 -7.06891,3.32104 -1.28058,-1.28058 -1.37802,-1.63059 -1.37802,-4.95 v -3.57197 h -1.62864 c -1.49805,0 -1.64925,0.1323 -1.88571,1.65 -0.14139,0.9075 -0.37875,2.42442 -0.52746,3.37093 -0.40167,2.55656 -2.46375,4.40764 -4.91006,4.40764 -2.48481,0 -3.57118,-0.59225 -4.54668,-2.47866 -1.37381,-2.65665 -0.61211,-9.66656 1.30081,-11.97149 0.67367,-0.81172 -0.33623,-1.22922 -2.47299,-1.02235 -1.45944,0.14129 -1.61759,0.33422 -2.44243,2.97964 -1.27549,4.09071 -1.22287,9.43825 0.12016,12.21259 2.20661,4.55823 7.80991,6.19646 12.10812,3.54002 z"
       id="path1498"
       inkscape:connector-curvature="0"
       transform="scale(0.26458333)" />
    <path
       style="opacity:1;fill:#3fcaf4;fill-opacity:1;stroke:none;stroke-width:0.39020923;stroke-miterlimit:4;stroke-dasharray:none;stroke-dashoffset:0;stroke-opacity:1"
       d="m 419.21007,597.00778 c -7.38641,-10.16562 -13.48538,-18.70437 -13.55329,-18.975 -0.0679,-0.27063 0.66135,-1.02241 1.62057,-1.67062 0.95922,-0.64822 3.88547,-3.3 6.50277,-5.89286 7.84824,-7.77495 13.61124,-16.19749 17.71646,-25.89238 1.20508,-2.8459 2.38224,-5.23667 2.61593,-5.31282 0.4113,-0.13404 43.41794,13.69826 43.81054,14.09086 0.10714,0.10715 -0.39722,1.7742 -1.12081,3.70458 -6.48496,17.30053 -15.96014,32.03664 -29.18965,45.39671 -4.29545,4.33784 -14.21323,13.03448 -14.86473,13.03448 -0.0594,0 -6.15139,-8.31733 -13.53779,-18.48295 z m 19.07405,0.87969 c -0.90795,-2.50498 -3.44805,-11.374 -3.29995,-11.5221 0.1034,-0.10339 2.9438,0.0671 6.31201,0.37886 l 6.12402,0.56685 1.4412,-1.58518 c 0.79266,-0.87184 1.44742,-1.70489 1.45502,-1.85122 0.008,-0.14633 -3.6214,-0.60469 -8.06446,-1.01858 -4.44305,-0.41389 -8.20859,-0.96443 -8.36786,-1.22342 -0.15926,-0.25899 -1.43886,-4.30514 -2.84355,-8.99145 -2.73777,-9.1337 -2.69176,-9.07405 -4.75905,-6.1708 l -0.90474,1.27058 2.08314,6.76846 c 1.14572,3.72266 2.00849,6.84311 1.91726,6.93434 -0.0912,0.0912 -3.31643,-0.15542 -7.16711,-0.54813 l -7.00124,-0.714 -1.5039,1.73277 c -0.82714,0.95302 -1.44467,1.79199 -1.37229,1.86437 0.0724,0.0724 4.11211,0.54104 8.97717,1.04146 4.86506,0.50041 8.907,0.97652 8.98208,1.058 0.0751,0.0815 1.02149,3.01209 2.10312,6.51245 1.08162,3.50036 2.19653,7.09867 2.47757,7.99625 l 0.51098,1.63196 1.54937,-1.79236 c 0.85216,-0.9858 1.4602,-2.0384 1.35121,-2.33911 z m 19.23541,-22.79698 c 0.71303,-0.9398 1.29643,-1.96347 1.29643,-2.27483 0,-0.31135 -1.4659,-5.1863 -3.25754,-10.83323 -2.73817,-8.63018 -3.47101,-10.44177 -4.59643,-11.36247 -0.73639,-0.60243 -1.48109,-1.10295 -1.65489,-1.11228 -0.1738,-0.009 -2.15224,2.21561 -4.39653,4.9443 l -4.08052,4.96126 -1.89115,-1.5434 c -3.66458,-2.99072 -3.41794,-2.93767 -4.86109,-1.0456 -0.71458,0.93687 -1.11565,1.86135 -0.89126,2.05441 0.22439,0.19306 1.41031,1.15092 2.63537,2.12859 l 2.2274,1.77758 -1.26596,1.65976 -1.26596,1.65975 1.37618,1.18374 1.37618,1.18374 1.23243,-1.47626 c 0.67784,-0.81193 1.37169,-1.47625 1.54188,-1.47625 0.1702,0 3.42931,2.54572 7.24246,5.65714 3.81315,3.11143 7.15881,5.64942 7.43479,5.63997 0.27598,-0.009 1.08517,-0.78611 1.79821,-1.72592 z"
       id="path1500"
       inkscape:connector-curvature="0"
       transform="scale(0.26458333)" />
    <path
       style="opacity:1;fill:#3fcaf4;fill-opacity:1;stroke:none;stroke-width:0.39020923;stroke-miterlimit:4;stroke-dasharray:none;stroke-dashoffset:0;stroke-opacity:1"
       d="m 449.03381,566.16223 c -2.65767,-2.2115 -4.83214,-4.23079 -4.83214,-4.4873 0,-0.25651 1.21616,-1.94468 2.70257,-3.7515 l 2.70256,-3.28512 2.48315,7.43287 c 1.36573,4.08808 2.48315,7.59702 2.48315,7.79764 0,0.76419 -0.85013,0.19533 -5.53929,-3.70659 z"
       id="path1502"
       inkscape:connector-curvature="0"
       transform="scale(0.26458333)" />
    <path
       style="opacity:1;fill:#3fcaf4;fill-opacity:1;stroke:none;stroke-width:0.39020923;stroke-miterlimit:4;stroke-dasharray:none;stroke-dashoffset:0;stroke-opacity:1"
       d="m 357.93024,617.15697 v -23.35195 h 2.65022 c 4.07029,0 12.11063,-1.29359 17.85693,-2.87296 8.24021,-2.26481 16.53874,-6.07055 23.84699,-10.93633 l 1.21841,-0.81121 13.51373,18.59796 c 7.43255,10.22888 13.51271,18.76902 13.51147,18.9781 -0.004,0.6574 -8.46213,5.88374 -14.87475,9.19109 -15.67266,8.0833 -32.61389,12.91824 -48.38928,13.81005 -2.67033,0.15096 -5.86282,0.38084 -7.09443,0.51084 l -2.23929,0.23636 z m 19.76347,14.8524 1.81161,-0.92422 0.57665,-4.85078 c 0.31716,-2.66793 0.71331,-5.52498 0.88032,-6.34899 l 0.30367,-1.49821 5.39496,3.06074 5.39496,3.06074 1.8171,-0.8194 c 0.9994,-0.45067 1.91319,-0.97488 2.03064,-1.16492 0.11745,-0.19004 -2.91583,-2.095 -6.74063,-4.23324 -3.8248,-2.13825 -6.99997,-3.91867 -7.05593,-3.95651 -0.056,-0.0378 0.40929,-4.18953 1.0339,-9.22599 0.62461,-5.03646 1.0622,-9.23065 0.97244,-9.32042 -0.0898,-0.0898 -1.00713,0.26732 -2.03859,0.79353 -2.09934,1.071 -2.06595,0.97109 -2.93205,8.77332 -0.85366,7.69011 -0.0319,7.3087 -7.0536,3.27388 -3.35922,-1.93028 -6.32093,-3.5096 -6.58158,-3.5096 -0.74557,0 -3.80591,1.55119 -3.80591,1.9291 0,0.1871 3.50036,2.30812 7.77857,4.71339 4.27822,2.40527 7.77834,4.5995 7.77804,4.87608 -2.9e-4,0.27657 -0.42434,3.79107 -0.94232,7.81 -1.02395,7.94455 -1.06785,8.48572 -0.68836,8.48572 0.13997,0 1.06972,-0.4159 2.06611,-0.92422 z m 32.68925,-16.57202 c 3.69136,-1.84435 6.77735,-3.41281 6.85774,-3.48546 0.0804,-0.0727 -1.36105,-3.14081 -3.20322,-6.81814 l -3.34941,-6.68606 -1.9179,1.7327 c -2.11523,1.91099 -5.22914,3.49825 -6.89435,3.51427 -3.49092,0.0336 -6.22651,-2.89715 -6.22953,-6.67393 -0.001,-1.84479 0.24895,-2.46954 1.53038,-3.81794 1.7062,-1.79537 6.0759,-3.64063 8.62126,-3.64063 0.89777,0 1.63231,-0.0989 1.63231,-0.21972 0,-0.12085 -0.368,-0.99143 -0.81778,-1.93463 -0.80074,-1.67918 -0.8619,-1.70886 -2.9356,-1.42463 -3.08562,0.42293 -7.94213,2.85926 -9.98925,5.01123 -3.67828,3.86668 -3.48145,9.54772 0.47859,13.81341 3.06355,3.29999 7.60107,3.80152 12.32968,1.36278 l 2.83667,-1.46298 1.40982,2.79284 1.40981,2.79284 -5.18954,2.60265 c -2.85425,1.43146 -5.18954,2.71749 -5.18954,2.85784 0,0.43971 1.42683,3.03694 1.66839,3.03694 0.12644,0 3.2501,-1.50902 6.94147,-3.35338 z"
       id="path1504"
       inkscape:connector-curvature="0"
       transform="scale(0.26458333)" />
    <path
       style="opacity:1;fill:#3fcaf4;fill-opacity:1;stroke:none;stroke-width:0.39020923;stroke-miterlimit:4;stroke-dasharray:none;stroke-dashoffset:0;stroke-opacity:1"
       d=""
       id="path1506"
       inkscape:connector-curvature="0"
       transform="scale(0.26458333)" />
    <path
       style="opacity:1;fill:#3fcaf4;fill-opacity:1;stroke:none;stroke-width:0.39020923;stroke-miterlimit:4;stroke-dasharray:none;stroke-dashoffset:0;stroke-opacity:1"
       d="m 335.01881,616.24502 c -1.32402,-1.32403 -1.60285,-1.95421 -1.60285,-3.62259 0,-2.45476 1.50605,-5.73164 3.1204,-6.7894 1.46386,-0.95916 3.41736,-1.04917 5.35468,-0.2467 5.31371,2.20101 2.54645,12.26154 -3.37268,12.26154 -1.52845,0 -2.20788,-0.31119 -3.49955,-1.60285 z"
       id="path1508"
       inkscape:connector-curvature="0"
       transform="scale(0.26458333)" />
    <path
       style="opacity:1;fill:#3fcaf4;fill-opacity:1;stroke:none;stroke-width:0.39020923;stroke-miterlimit:4;stroke-dasharray:none;stroke-dashoffset:0;stroke-opacity:1"
       d="m 348.9731,639.97096 c -18.44085,-1.14367 -37.78613,-6.78362 -53.41484,-15.57263 -7.51259,-4.2248 -11.70649,-7.07956 -11.26054,-7.66496 0.22437,-0.29452 6.29541,-8.64996 13.4912,-18.56764 7.19579,-9.91768 13.14857,-18.03214 13.22839,-18.03214 0.0798,0 1.49768,0.82169 3.15078,1.82599 6.75949,4.10653 14.91097,7.54365 22.44346,9.46342 4.78498,1.21953 12.60605,2.36177 16.25084,2.37338 l 2.71071,0.009 v 23.33571 c 0,12.83464 -0.15911,23.30421 -0.35357,23.2657 -0.19447,-0.0385 -3.00536,-0.23447 -6.24643,-0.43547 z m -9.55748,-10.27161 c 7.43184,-3.79144 12.06606,-17.90913 7.93027,-24.15874 -1.66172,-2.51103 -5.16021,-4.18178 -8.76978,-4.18813 -3.73358,-0.007 -6.47191,1.79259 -8.24537,5.41741 -2.18918,4.4745 -1.68629,9.15646 1.27257,11.84784 2.4845,2.25991 6.3869,3.23663 9.27247,2.32078 0.56424,-0.17908 1.02589,-0.13099 1.02589,0.10686 0,0.77636 -2.7795,4.29147 -4.0534,5.12616 -2.57497,1.68719 -7.16421,0.74549 -10.19817,-2.09263 l -1.28729,-1.2042 -0.71629,1.7143 c -0.39395,0.94287 -0.7159,1.88023 -0.71543,2.08302 0.001,0.58439 4.08502,3.00871 6.26469,3.71908 2.4751,0.80665 5.83737,0.5237 8.21984,-0.69175 z m -21.08538,-5.29634 c 0,-0.28395 -0.7425,-3.59626 -1.65,-7.36067 -0.9075,-3.76441 -1.65,-7.12767 -1.65,-7.4739 0,-0.34623 3.28822,-3.01869 7.30715,-5.93879 4.01892,-2.9201 7.30714,-5.45672 7.30714,-5.63693 0,-0.1802 -0.91145,-0.63821 -2.02544,-1.01778 l -2.02544,-0.69014 -5.63528,4.16371 c -3.0994,2.29003 -5.7766,4.17172 -5.94934,4.18153 -0.17274,0.01 -0.87104,-2.36877 -1.55176,-5.28574 -2.16027,-9.25693 -1.89422,-8.66646 -4.26961,-9.47584 -1.16301,-0.39627 -2.11298,-0.57427 -2.11104,-0.39554 0.002,0.17872 0.92117,4.1862 2.04273,8.9055 l 2.03921,8.58055 -6.74163,4.85516 c -3.70789,2.67035 -6.74855,4.99434 -6.75701,5.16443 -0.008,0.17009 0.92982,0.63132 2.08507,1.02495 l 2.10047,0.71571 2.02453,-1.52562 c 1.1135,-0.83908 3.43163,-2.52101 5.15141,-3.73761 l 3.12688,-2.212 1.53015,6.15389 c 1.45602,5.85578 1.60143,6.18514 3.00169,6.7992 1.84037,0.80705 2.65012,0.86997 2.65012,0.20593 z"
       id="path1510"
       inkscape:connector-curvature="0"
       transform="scale(0.26458333)" />
    <path
       style="opacity:1;fill:#3fcaf4;fill-opacity:1;stroke:none;stroke-width:0.39020923;stroke-miterlimit:4;stroke-dasharray:none;stroke-dashoffset:0;stroke-opacity:1"
       d="m 278.96596,613.54686 c -12.62965,-10.23508 -22.51554,-21.23958 -30.35676,-33.79169 -4.07978,-6.53084 -10.42866,-19.90533 -12.02432,-25.33028 -0.26156,-0.88924 1.26829,-1.46137 21.11472,-7.89643 11.76819,-3.81575 21.59898,-6.93773 21.8462,-6.93773 0.24722,0 0.71199,0.87615 1.03282,1.947 1.01755,3.39628 6.53172,13.68025 9.8254,18.32443 3.37662,4.76113 12.52143,14.29344 16.27387,16.96344 1.24013,0.8824 2.15702,1.85913 2.03753,2.17051 -0.54698,1.4254 -26.34696,36.49268 -26.83773,36.4778 -0.30503,-0.009 -1.6153,-0.87643 -2.91173,-1.92705 z m 2.72661,-16.17301 c -0.44103,-0.53678 -2.59989,-2.82263 -4.79747,-5.07964 -3.89272,-3.99802 -3.96605,-4.11502 -2.84808,-4.5445 2.38177,-0.91498 23.78537,-10.08307 23.98822,-10.2752 0.11668,-0.11051 -0.51975,-0.91163 -1.41428,-1.78027 l -1.62643,-1.57935 -13.67143,5.86092 c -7.51929,3.22351 -13.92512,6.11575 -14.23519,6.42721 -0.43802,0.43998 0.91755,2.12251 6.07785,7.54374 l 6.6416,6.97745 1.34354,-1.28718 c 1.28599,-1.23206 1.30919,-1.329 0.54167,-2.26318 z m -17.10518,-22.42598 c 0.83323,-4.01893 1.66118,-7.46541 1.8399,-7.65884 0.17871,-0.19344 4.3172,-1.08405 9.19665,-1.97914 4.87944,-0.89508 8.95024,-1.70596 9.04623,-1.80194 0.096,-0.096 -0.56222,-0.8886 -1.46268,-1.76136 l -1.6372,-1.58684 -6.89594,1.28958 c -3.79276,0.70927 -7.00033,1.18518 -7.12792,1.05758 -0.1276,-0.12759 0.45135,-3.33867 1.28654,-7.13574 l 1.51854,-6.90375 -1.57109,-1.62095 c -1.90148,-1.96183 -1.59232,-2.59778 -3.9545,8.13463 l -1.7791,8.08323 -2.64758,0.50271 c -1.45616,0.27649 -5.14025,0.9591 -8.18685,1.51692 -3.04661,0.55782 -5.53929,1.16249 -5.53929,1.34372 0,0.18123 0.6452,0.94765 1.43377,1.70315 l 1.43377,1.37364 6.17333,-1.06406 c 3.39533,-0.58523 6.23007,-1.00457 6.29941,-0.93187 0.0694,0.0727 -0.47753,2.89005 -1.21529,6.26076 l -1.34137,6.12857 1.48013,1.53306 c 0.81407,0.84319 1.6276,1.37354 1.80785,1.17858 0.18025,-0.19497 1.00946,-3.64271 1.84269,-7.66164 z"
       id="path1512"
       inkscape:connector-curvature="0"
       transform="scale(0.26458333)" />
    <path
       style="opacity:1;fill:#3fcaf4;fill-opacity:1;stroke:none;stroke-width:0.39020923;stroke-miterlimit:4;stroke-dasharray:none;stroke-dashoffset:0;stroke-opacity:1"
       d="m 234.02586,546.09984 c -4.71259,-17.26182 -5.6609,-36.7957 -2.66188,-54.83054 0.69247,-4.16423 3.43179,-15.83638 3.80843,-16.22761 0.10539,-0.10947 9.94903,2.96661 21.87475,6.83572 17.46101,5.66495 21.62749,7.17244 21.3974,7.74189 -0.15715,0.38893 -0.81604,3.14679 -1.46418,6.12857 -1.77325,8.15771 -2.04678,21.45938 -0.61506,29.90969 0.56867,3.35641 1.4163,7.33107 1.88363,8.83258 l 0.84968,2.73003 -17.50919,5.69203 c -9.63006,3.13062 -19.20634,6.24082 -21.28063,6.91156 -2.07428,0.67075 -4.00908,1.30663 -4.29955,1.41308 -0.32254,0.1182 -1.09464,-1.88152 -1.9834,-5.137 z m 29.76773,-10.02069 c 2.40535,-0.85786 3.57508,-1.96952 4.68605,-4.45339 1.06179,-2.37394 1.2574,-7.8683 0.36261,-10.18503 -1.25396,-3.24665 -4.15291,-5.0818 -8.11621,-5.13786 -2.99273,-0.0423 -4.57001,0.8062 -6.34547,3.41368 l -1.01395,1.48912 -0.98735,-1.67343 c -2.1583,-3.65804 -7.59488,-4.05956 -10.99884,-0.81233 -1.7057,1.62716 -2.3848,3.8597 -2.36038,7.75977 0.0352,5.6253 2.69542,8.86819 7.27475,8.86819 2.79689,0 4.84207,-0.97956 5.99154,-2.86971 l 0.85726,-1.40964 0.57925,1.39845 c 0.31859,0.76915 0.97012,1.75218 1.44783,2.1845 1.0741,0.97205 4.06753,2.0693 5.64528,2.0693 0.64821,0 1.98815,-0.28873 2.97763,-0.64162 z m 5.50808,-25.65098 v -2.29114 l -5.89328,-4.1488 -5.89328,-4.1488 6.10802,-3.74853 6.10802,-3.74853 0.31348,-2.09045 c 0.17242,-1.14976 0.18848,-2.21547 0.0357,-2.36826 -0.28626,-0.28625 -2.14436,0.76954 -10.69962,6.07963 l -4.97098,3.0854 -3.04331,-2.21489 c -1.67382,-1.21819 -4.79349,-3.43782 -6.9326,-4.93251 l -3.88928,-2.71762 0.0252,2.51425 0.0252,2.51424 4.93976,3.43868 c 2.71688,1.89128 4.82903,3.61788 4.69368,3.83688 -0.13536,0.21901 -2.39489,1.74322 -5.02118,3.38715 -2.6263,1.64392 -4.86924,3.2343 -4.98431,3.53419 -0.11508,0.29988 -0.14281,1.391 -0.0616,2.42471 l 0.14759,1.87948 6.6,-4.17692 c 3.63,-2.29731 6.74871,-4.17952 6.93046,-4.18269 0.18175,-0.003 3.57604,2.31804 7.54286,5.15825 3.96682,2.84021 7.37151,5.17378 7.56597,5.18571 0.19446,0.0119 0.35357,-1.00931 0.35357,-2.26943 z"
       id="path1514"
       inkscape:connector-curvature="0"
       transform="scale(0.26458333)" />
    <path
       style="opacity:1;fill:#3fcaf4;fill-opacity:1;stroke:none;stroke-width:0.39020923;stroke-miterlimit:4;stroke-dasharray:none;stroke-dashoffset:0;stroke-opacity:1"
       d="m 257.68046,531.49331 c -2.96992,-1.43727 -3.3701,-7.03979 -0.67484,-9.448 2.09475,-1.87166 5.0841,-1.84521 7.22076,0.0639 1.42319,1.27163 1.53958,1.59528 1.53958,4.28153 0,2.68625 -0.11639,3.0099 -1.53958,4.28153 -1.20807,1.0794 -1.96941,1.36874 -3.53572,1.34371 -1.09787,-0.0176 -2.45246,-0.25275 -3.0102,-0.52266 z"
       id="path1516"
       inkscape:connector-curvature="0"
       transform="scale(0.26458333)" />
    <path
       style="opacity:1;fill:#3fcaf4;fill-opacity:1;stroke:none;stroke-width:0.39020923;stroke-miterlimit:4;stroke-dasharray:none;stroke-dashoffset:0;stroke-opacity:1"
       d="m 243.80826,529.72699 c -1.07782,-1.07782 -1.37802,-1.80181 -1.37802,-3.32341 0,-2.53792 1.02617,-4.45198 2.77521,-5.17646 3.21957,-1.33359 6.18194,0.84725 6.18194,4.55104 0,3.56245 -1.42768,5.28719 -4.39698,5.31186 -1.37742,0.0114 -2.13005,-0.31093 -3.18215,-1.36303 z"
       id="path1518"
       inkscape:connector-curvature="0"
       transform="scale(0.26458333)" />
    <path
       style="opacity:1;fill:#3fcaf4;fill-opacity:1;stroke:none;stroke-width:0.39020923;stroke-miterlimit:4;stroke-dasharray:none;stroke-dashoffset:0;stroke-opacity:1"
       d="m 258.20301,463.28392 c -2.61266,-1.59325 -3.98705,-3.67559 -3.98705,-6.04079 0,-1.81157 0.25017,-2.38257 1.66273,-3.79513 1.5203,-1.5203 1.84311,-1.6424 3.76842,-1.42539 3.7792,0.42597 6.82599,3.64563 6.82599,7.21328 0,1.32814 -0.36557,2.08613 -1.60286,3.32341 -1.88622,1.88622 -4.32734,2.15153 -6.66723,0.72462 z"
       id="path1522"
       inkscape:connector-curvature="0"
       transform="scale(0.26458333)" />
    <path
       style="opacity:1;fill:#3fcaf4;fill-opacity:1;stroke:none;stroke-width:0.39020923;stroke-miterlimit:4;stroke-dasharray:none;stroke-dashoffset:0;stroke-opacity:1"
       d="m 257.98739,479.91882 c -11.53822,-3.75401 -21.24123,-6.91808 -21.56225,-7.03126 -0.42603,-0.15021 -0.21717,-1.19719 0.77325,-3.87631 6.50389,-17.59309 16.2654,-32.86512 29.49181,-46.14042 7.53749,-7.56535 13.30571,-12.3191 14.20276,-11.70487 0.34693,0.23755 6.47617,8.48633 13.62053,18.33062 l 12.98974,17.89871 -2.24721,1.85224 c -4.30004,3.54427 -11.69599,11.45209 -14.852,15.87989 -3.50294,4.91454 -8.737,14.79162 -10.05638,18.97719 -0.4657,1.47736 -0.96709,2.67567 -1.1142,2.6629 -0.14712,-0.0128 -9.70784,-3.09468 -21.24605,-6.84869 z m 15.72119,-6.1651 c 2.70953,-2.70795 3.76617,-5.07629 3.7759,-8.46325 0.0116,-4.04571 -1.65518,-7.26436 -5.77403,-11.14987 -8.57463,-8.08887 -17.05514,-8.0392 -20.75488,0.12156 -1.72049,3.795 -1.00996,7.16606 2.22269,10.54548 3.19955,3.34481 7.17009,4.39633 10.82855,2.86773 3.23054,-1.34981 5.76629,-4.76454 5.76629,-7.76511 0,-1.8394 0.60137,-1.50503 2.40324,1.33622 1.55121,2.44601 1.81752,5.3936 0.68513,7.5834 -0.80674,1.56004 -3.56217,4.07701 -4.94311,4.51531 -1.30763,0.41502 -1.22635,1.01642 0.31677,2.34376 1.15009,0.98926 1.41956,1.04304 2.475,0.49394 0.65142,-0.3389 2.00072,-1.43203 2.99845,-2.42917 z m 12.71022,-15.02574 1.32427,-1.59468 -1.87339,-6.97486 c -1.03035,-3.83617 -1.81618,-7.03244 -1.74628,-7.10283 0.0699,-0.0704 3.26485,0.31254 7.09988,0.85096 l 6.97279,0.97894 1.58137,-1.53273 c 0.86976,-0.843 1.58137,-1.66695 1.58137,-1.831 0,-0.16405 -3.82964,-0.79661 -8.51031,-1.40568 -4.68068,-0.60907 -8.79319,-1.33484 -9.13892,-1.61282 -0.34573,-0.27797 -1.53522,-3.95273 -2.6433,-8.16612 -1.10809,-4.21339 -2.1679,-7.66072 -2.35513,-7.66072 -0.18724,0 -0.91578,0.75433 -1.61899,1.67628 l -1.27855,1.67627 1.6221,5.98444 c 0.89215,3.29144 1.57942,6.04181 1.52726,6.11193 -0.0522,0.0701 -2.89143,-0.23631 -6.30947,-0.68097 l -6.21462,-0.80845 -1.51503,1.51984 c -1.10097,1.10446 -1.35347,1.6206 -0.92387,1.88852 0.32514,0.20277 3.79291,0.7625 7.70616,1.24382 3.91325,0.48133 7.36563,1.12577 7.67194,1.43208 0.30632,0.30632 1.58563,4.4075 2.84292,9.11374 1.25728,4.70623 2.41817,8.54147 2.57975,8.52275 0.16158,-0.0187 0.8897,-0.75164 1.61805,-1.62871 z"
       id="path1524"
       inkscape:connector-curvature="0"
       transform="scale(0.26458333)" />
  </g>
  <g
     inkscape:groupmode="layer"
     id="layer2"
     inkscape:label="middle"
     style="display:inline">
    <circle
       style="opacity:1;fill:#ffffff;fill-opacity:1;stroke:#00000e;stroke-width:0.306;stroke-miterlimit:4;stroke-dasharray:none;stroke-dashoffset:0;stroke-opacity:1"
       id="path832"
       cx="94.372864"
       cy="135.59593"
       r="21.344143" />
  </g>
  <g
     inkscape:groupmode="layer"
     id="layer3"
     inkscape:label="top">
    <g
       style=""
       id="g840">
      <circle
         r="9.1726933"
         cy="135.59593"
         cx="94.372864"
         id="path826"
         style="opacity:1;fill:#ffffff;fill-opacity:1;stroke:#00000e;stroke-width:0.60599995;stroke-miterlimit:4;stroke-dasharray:none;stroke-dashoffset:0;stroke-opacity:1" />
      <text
         id="text830"
         y="139.52335"
         x="88.099342"
         style="font-style:normal;font-weight:normal;font-size:10.58333302px;line-height:1.25;font-family:sans-serif;letter-spacing:0px;word-spacing:0px;fill:#000000;fill-opacity:1;stroke:none;stroke-width:0.26458332"
         xml:space="preserve"><tspan
           style="stroke-width:0.26458332"
           y="139.52335"
           x="88.099342"
           id="tspan828"
           sodipodi:role="line">X*</tspan></text>
    </g>
    <path
       style="fill:none;stroke:#000000;stroke-width:0.465;stroke-linecap:butt;stroke-linejoin:miter;stroke-opacity:1;stroke-miterlimit:4;stroke-dasharray:none"
       d="M 94.372865,126.49116 V 101.54473"
       id="path847"
       inkscape:connector-curvature="0"
       inkscape:transform-center-y="-21.578661"
       inkscape:transform-center-x="0.031183036" />
    <path
       style="fill:none;stroke:#000000;stroke-width:0.465;stroke-linecap:butt;stroke-linejoin:miter;stroke-opacity:1;stroke-miterlimit:4;stroke-dasharray:none"
       d="M 89.076141,128.49794 74.412997,108.31586"
       id="path847-5"
       inkscape:connector-curvature="0"
       inkscape:transform-center-y="-17.439176"
       inkscape:transform-center-x="12.708846" />
    <path
       style="fill:none;stroke:#000000;stroke-width:0.465;stroke-linecap:butt;stroke-linejoin:miter;stroke-opacity:1;stroke-miterlimit:4;stroke-dasharray:none"
       d="M 85.988432,133.03866 62.26297,125.3298"
       id="path847-5-3"
       inkscape:connector-curvature="0"
       inkscape:transform-center-y="-6.638516"
       inkscape:transform-center-x="20.532163" />
    <path
       style="fill:none;stroke:#000000;stroke-width:0.465;stroke-linecap:butt;stroke-linejoin:miter;stroke-opacity:1;stroke-miterlimit:4;stroke-dasharray:none"
       d="m 85.723429,138.59245 -23.725457,7.70888"
       id="path847-5-3-2"
       inkscape:connector-curvature="0"
       inkscape:transform-center-y="6.697834"
       inkscape:transform-center-x="20.512891" />
    <path
       style="fill:none;stroke:#000000;stroke-width:0.465;stroke-linecap:butt;stroke-linejoin:miter;stroke-opacity:1;stroke-miterlimit:4;stroke-dasharray:none"
       d="M 89.401693,143.14383 74.73856,163.32592"
       id="path847-5-3-2-9"
       inkscape:connector-curvature="0"
       inkscape:transform-center-y="17.475839"
       inkscape:transform-center-x="12.658389" />
    <path
       style="fill:none;stroke:#000000;stroke-width:0.465;stroke-linecap:butt;stroke-linejoin:miter;stroke-opacity:1;stroke-miterlimit:4;stroke-dasharray:none"
       d="m 94.372868,144.81345 1.1e-5,24.94642"
       id="path847-5-3-2-9-1"
       inkscape:connector-curvature="0"
       inkscape:transform-center-y="21.578664"
       inkscape:transform-center-x="-0.031189" />
    <path
       style="fill:none;stroke:#000000;stroke-width:0.465;stroke-linecap:butt;stroke-linejoin:miter;stroke-opacity:1;stroke-miterlimit:4;stroke-dasharray:none"
       d="m 99.643591,142.94474 14.663149,20.18208"
       id="path847-5-3-2-9-1-2"
       inkscape:connector-curvature="0"
       inkscape:transform-center-y="17.439174"
       inkscape:transform-center-x="-12.708854" />
    <path
       style="fill:none;stroke:#000000;stroke-width:0.465;stroke-linecap:butt;stroke-linejoin:miter;stroke-opacity:1;stroke-miterlimit:4;stroke-dasharray:none"
       d="m 102.85603,138.40402 23.72546,7.70886"
       id="path847-5-3-2-9-1-2-7"
       inkscape:connector-curvature="0"
       inkscape:transform-center-y="6.638514"
       inkscape:transform-center-x="-20.532168" />
    <path
       style="fill:none;stroke:#000000;stroke-width:0.465;stroke-linecap:butt;stroke-linejoin:miter;stroke-opacity:1;stroke-miterlimit:4;stroke-dasharray:none"
       d="m 102.74684,132.60077 23.72545,-7.70888"
       id="path847-5-3-2-9-1-2-7-0"
       inkscape:connector-curvature="0"
       inkscape:transform-center-y="-6.697836"
       inkscape:transform-center-x="-20.512893" />
    <path
       style="fill:none;stroke:#000000;stroke-width:0.465;stroke-linecap:butt;stroke-linejoin:miter;stroke-opacity:1;stroke-miterlimit:4;stroke-dasharray:none"
       d="M 99.442769,128.04938 114.10589,107.86729"
       id="path847-5-3-2-9-1-2-7-0-9"
       inkscape:connector-curvature="0"
       inkscape:transform-center-y="-17.475841"
       inkscape:transform-center-x="-12.658387" />
    <text
       xml:space="preserve"
       style="font-style:normal;font-weight:normal;font-size:10.58333302px;line-height:1.25;font-family:sans-serif;letter-spacing:0px;word-spacing:0px;fill:#000000;fill-opacity:1;stroke:none;stroke-width:0.26458332"
       x="136.77769"
       y="72.592033"
       id="text1064"
       transform="rotate(24.607727)"
       inkscape:transform-center-x="0.12473214"><tspan
         sodipodi:role="line"
         id="tspan1062"
         x="136.77769"
         y="72.592033"
         style="stroke-width:0.26458332">1</tspan></text>
    <text
       xml:space="preserve"
       style="font-style:normal;font-weight:normal;font-size:10.58333302px;line-height:1.25;font-family:sans-serif;letter-spacing:0px;word-spacing:0px;fill:#000000;fill-opacity:1;stroke:none;stroke-width:0.26458332"
       x="161.23419"
       y="-3.7952929"
       id="text1064-3"
       transform="rotate(52.463531)"
       inkscape:transform-center-x="0.11027469"
       inkscape:transform-center-y="-0.058275945"><tspan
         sodipodi:role="line"
         id="tspan1062-6"
         x="161.23419"
         y="-3.7952929"
         style="stroke-width:0.26458332">2</tspan></text>
    <text
       xml:space="preserve"
       style="font-style:normal;font-weight:normal;font-size:10.58333302px;line-height:1.25;font-family:sans-serif;letter-spacing:0px;word-spacing:0px;fill:#000000;fill-opacity:1;stroke:none;stroke-width:0.26458332"
       x="122.06579"
       y="-117.55094"
       id="text1064-3-0"
       transform="rotate(95.00598)"
       inkscape:transform-center-x="0.041846171"
       inkscape:transform-center-y="-0.1174956"><tspan
         sodipodi:role="line"
         x="122.06579"
         y="-117.55094"
         style="stroke-width:0.26458332"
         id="tspan1102">3</tspan></text>
    <text
       xml:space="preserve"
       style="font-style:normal;font-weight:normal;font-size:10.58333302px;line-height:1.25;font-family:sans-serif;letter-spacing:0px;word-spacing:0px;fill:#000000;fill-opacity:1;stroke:none;stroke-width:0.26458332"
       x="60.259369"
       y="-164.01257"
       id="text1064-3-0-2"
       transform="rotate(122.82589)"
       inkscape:transform-center-x="-0.017815734"
       inkscape:transform-center-y="-0.12344513"><tspan
         sodipodi:role="line"
         x="60.259369"
         y="-164.01257"
         style="stroke-width:0.26458332"
         id="tspan1102-6">4</tspan><tspan
         sodipodi:role="line"
         x="60.259369"
         y="-150.7834"
         style="stroke-width:0.26458332"
         id="tspan1124" /></text>
    <text
       xml:space="preserve"
       style="font-style:normal;font-weight:normal;font-size:10.58333302px;line-height:1.25;font-family:sans-serif;letter-spacing:0px;word-spacing:0px;fill:#000000;fill-opacity:1;stroke:none;stroke-width:0.26458332"
       x="-32.188736"
       y="-173.92412"
       id="text1064-3-0-2-1"
       transform="rotate(155.73668)"
       inkscape:transform-center-x="-0.082047211"
       inkscape:transform-center-y="-0.093968194"><tspan
         sodipodi:role="line"
         x="-32.188736"
         y="-173.92412"
         style="stroke-width:0.26458332"
         id="tspan1147">5</tspan><tspan
         sodipodi:role="line"
         x="-32.188736"
         y="-160.69495"
         style="stroke-width:0.26458332"
         id="tspan1124-7" /></text>
    <text
       xml:space="preserve"
       style="font-style:normal;font-weight:normal;font-size:10.58333302px;line-height:1.25;font-family:sans-serif;letter-spacing:0px;word-spacing:0px;fill:#000000;fill-opacity:1;stroke:none;stroke-width:0.26458332"
       x="-139.16885"
       y="-107.30544"
       id="text1064-3-0-2-1-9"
       transform="rotate(-160.21093)"
       inkscape:transform-center-x="-0.12431765"
       inkscape:transform-center-y="-0.010491846"><tspan
         sodipodi:role="line"
         x="-139.16885"
         y="-107.30544"
         style="stroke-width:0.26458332"
         id="tspan1147-2">6</tspan><tspan
         sodipodi:role="line"
         x="-139.16885"
         y="-94.076279"
         style="stroke-width:0.26458332"
         id="tspan1124-7-0" /></text>
    <text
       xml:space="preserve"
       style="font-style:normal;font-weight:normal;font-size:10.58333302px;line-height:1.25;font-family:sans-serif;letter-spacing:0px;word-spacing:0px;fill:#000000;fill-opacity:1;stroke:none;stroke-width:0.26458332"
       x="-168.8754"
       y="-10.607635"
       id="text1064-3-0-2-1-9-2"
       transform="rotate(-124.69776)"
       inkscape:transform-center-x="-0.10728288"
       inkscape:transform-center-y="0.06368491"><tspan
         sodipodi:role="line"
         x="-168.8754"
         y="-10.607635"
         style="stroke-width:0.26458332"
         id="tspan1147-2-3">7</tspan><tspan
         sodipodi:role="line"
         x="-168.8754"
         y="2.621532"
         style="stroke-width:0.26458332"
         id="tspan1124-7-0-7" /></text>
    <text
       xml:space="preserve"
       style="font-style:normal;font-weight:normal;font-size:10.58333302px;line-height:1.25;font-family:sans-serif;letter-spacing:0px;word-spacing:0px;fill:#000000;fill-opacity:1;stroke:none;stroke-width:0.26458332"
       x="-150.34499"
       y="58.787743"
       id="text1064-3-0-2-1-9-2-5"
       transform="rotate(-99.702693)"
       inkscape:transform-center-x="-0.070323891"
       inkscape:transform-center-y="0.10304575"><tspan
         sodipodi:role="line"
         x="-150.34499"
         y="58.787743"
         style="stroke-width:0.26458332"
         id="tspan1147-2-3-9">8</tspan><tspan
         sodipodi:role="line"
         x="-150.34499"
         y="72.016907"
         style="stroke-width:0.26458332"
         id="tspan1124-7-0-7-2" /></text>
    <text
       xml:space="preserve"
       style="font-style:normal;font-weight:normal;font-size:10.58333302px;line-height:1.25;font-family:sans-serif;letter-spacing:0px;word-spacing:0px;fill:#000000;fill-opacity:1;stroke:none;stroke-width:0.26458332"
       x="-62.226963"
       y="142.18965"
       id="text1064-3-0-2-1-9-2-5-2"
       transform="rotate(-55.926313)"
       inkscape:transform-center-x="-0.228956"
       inkscape:transform-center-y="0.24779255"><tspan
         sodipodi:role="line"
         x="-62.226963"
         y="142.18965"
         style="stroke-width:0.26458332"
         id="tspan1147-2-3-9-8">9</tspan><tspan
         sodipodi:role="line"
         x="-62.226963"
         y="155.41882"
         style="stroke-width:0.26458332"
         id="tspan1124-7-0-7-2-9" /></text>
    <text
       xml:space="preserve"
       style="font-style:normal;font-weight:normal;font-size:7.73520517px;line-height:1.25;font-family:sans-serif;letter-spacing:0px;word-spacing:0px;fill:#000000;fill-opacity:1;stroke:none;stroke-width:0.19338012"
       x="47.704815"
       y="132.66446"
       id="text1064-3-0-2-1-9-2-5-2-7"
       transform="matrix(0.78280251,-0.38824203,0.37395384,1.0919937,0,0)"
       inkscape:transform-center-x="-0.066115906"
       inkscape:transform-center-y="0.28727786"><tspan
         sodipodi:role="line"
         x="47.704815"
         y="132.66446"
         style="stroke-width:0.19338012"
         id="tspan1147-2-3-9-8-3">10</tspan><tspan
         sodipodi:role="line"
         x="47.704815"
         y="142.33347"
         style="stroke-width:0.19338012"
         id="tspan1124-7-0-7-2-9-6" /></text>
    <path
       style="opacity:1;fill:#35a4ff;fill-opacity:1;stroke:none;stroke-width:0.39020923;stroke-miterlimit:4;stroke-dasharray:none;stroke-dashoffset:0;stroke-opacity:1"
       d="m 349.68024,545.05214 c -9.48662,-2.19064 -18.4743,-9.10624 -22.54711,-17.34896 -3.41533,-6.91211 -4.60432,-15.98993 -2.89071,-22.07043 0.39955,-1.41775 0.91508,-3.30052 1.14562,-4.18393 1.4254,-5.46193 7.21993,-12.79491 13.30963,-16.84334 7.30987,-4.85959 16.88702,-6.53427 25.53214,-4.4646 11.47703,2.74765 20.41637,11.07548 24.25933,22.59986 1.04554,3.13538 1.20523,4.42632 1.20523,9.74285 0,5.31652 -0.15969,6.60747 -1.20523,9.74285 -3.57336,10.71589 -11.72408,18.83367 -22.26967,22.1797 -3.79655,1.20461 -12.62659,1.5495 -16.53923,0.646 z m -6.9143,-23.67951 3.92854,-5.93729 3.97333,5.94912 3.97332,5.94913 h 2.37952 c 1.77592,0 2.29078,-0.14948 2.02968,-0.58929 -0.19242,-0.32411 -2.43601,-3.71866 -4.98576,-7.54345 l -4.63592,-6.95416 4.27428,-6.38633 c 2.35085,-3.51248 4.39248,-6.69435 4.53695,-7.07083 0.20773,-0.54136 -0.21618,-0.6821 -2.02706,-0.67297 l -2.28972,0.0115 -3.45711,5.23012 -3.45712,5.23013 -3.50259,-5.24167 -3.50259,-5.24167 h -2.37883 c -1.77518,0 -2.29015,0.14953 -2.02934,0.58928 0.19222,0.32411 2.22352,3.3997 4.514,6.83464 l 4.16452,6.24535 -5.20022,7.77965 -5.20021,7.77965 2.48189,-0.0118 2.48189,-0.0118 z m 28.93376,-8.85156 0.13769,-3.49823 3.05587,1.83981 c 2.62407,1.57984 3.14944,1.74624 3.71804,1.17764 1.05266,-1.05267 0.314,-2.00868 -2.74519,-3.55295 -1.56758,-0.79132 -2.85015,-1.53139 -2.85015,-1.64461 0,-0.11322 1.37893,-0.977 3.06428,-1.9195 3.09529,-1.73099 3.6104,-2.47811 2.4007,-3.48207 -0.52551,-0.43614 -1.31024,-0.15493 -3.77143,1.35148 l -3.10784,1.90221 v -3.53063 c 0,-3.45172 -0.0263,-3.53063 -1.17857,-3.53063 -1.15223,0 -1.17857,0.0789 -1.17857,3.53063 v 3.53063 l -3.07259,-1.88063 c -1.68992,-1.03435 -3.24694,-1.88063 -3.46004,-1.88063 -0.2131,0 -0.60915,0.48657 -0.88012,1.08127 -0.4591,1.00762 -0.26794,1.20416 2.80647,2.8855 3.65173,1.99705 3.6845,1.80812 -0.70749,4.07889 -2.39027,1.23583 -2.66208,1.51671 -2.23675,2.31145 0.78357,1.46411 1.04805,1.43317 4.2552,-0.49769 l 3.0596,-1.84204 0.13769,3.53417 c 0.13187,3.38467 0.18586,3.53416 1.2766,3.53416 1.08957,0 1.14487,-0.15155 1.2766,-3.49823 z"
       id="path1280"
       inkscape:connector-curvature="0"
       transform="scale(0.26458333)" />
    <path
       style="opacity:1;fill:#35a4ff;fill-opacity:1;stroke:none;stroke-width:0.39020923;stroke-miterlimit:4;stroke-dasharray:none;stroke-dashoffset:0;stroke-opacity:1"
       d="m 334.11216,480.29986 c -1.03113,-1.45361 -2.04127,-2.91576 -2.24476,-3.24921 -0.26572,-0.43543 0.99634,-1.28931 4.47857,-3.0301 2.66671,-1.3331 4.90255,-2.47113 4.96854,-2.52895 0.066,-0.0578 -0.11201,-0.77062 -0.39556,-1.58401 l -0.51554,-1.47889 -1.85045,0.94402 -1.85045,0.94403 -0.38836,-1.07372 c -0.21361,-0.59055 -1.82653,-5.25613 -3.58428,-10.36796 l -3.19591,-9.29423 -1.35264,0.69947 c -0.74395,0.38472 -2.11233,1.3665 -3.04083,2.18174 -1.38482,1.21588 -1.63413,1.70143 -1.38729,2.7019 0.48968,1.98479 0.97022,2.07957 2.72629,0.53772 l 1.66499,-1.46188 2.70511,8.14333 c 1.48782,4.47883 2.78641,8.36614 2.88577,8.63847 0.0994,0.27233 -0.55207,0.84456 -1.44762,1.27162 -0.96698,0.46112 -1.69078,1.18385 -1.78217,1.77955 -0.11409,0.74365 -2.65345,-2.4366 -9.81818,-12.29617 -5.31536,-7.31458 -9.81074,-13.54727 -9.98973,-13.85042 -0.78514,-1.32975 12.16214,-8.25379 20.78578,-11.11596 7.27591,-2.41486 17.11096,-4.23377 22.89251,-4.23377 h 1.19715 v 21.83987 21.83986 l -3.86295,0.59135 c -4.32048,0.66139 -10.06143,2.60656 -12.88917,4.36716 -1.02812,0.64012 -2.08637,1.29081 -2.35168,1.44598 -0.2653,0.15517 -1.32601,-0.90719 -2.35714,-2.3608 z m 17.26622,-13.44331 c 2.8432,-1.91167 3.42861,-5.66639 1.84739,-11.84888 -2.04713,-8.00419 -5.24913,-12.53123 -8.86342,-12.53123 -3.48777,0 -5.28925,2.44706 -5.28925,7.18469 0,3.62939 0.97337,7.58137 2.87493,11.67246 2.81156,6.04892 5.93097,7.87583 9.43035,5.52296 z"
       id="path1282"
       inkscape:connector-curvature="0"
       transform="scale(0.26458333)" />
    <path
       style="opacity:1;fill:#35a4ff;fill-opacity:1;stroke:none;stroke-width:0.39020923;stroke-miterlimit:4;stroke-dasharray:none;stroke-dashoffset:0;stroke-opacity:1"
       d=""
       id="path1284"
       inkscape:connector-curvature="0"
       transform="scale(0.26458333)" />
    <path
       style="opacity:1;fill:#49ee7f;fill-opacity:1;stroke:none;stroke-width:0.39020923;stroke-miterlimit:4;stroke-dasharray:none;stroke-dashoffset:0;stroke-opacity:1"
       d="m 346.75133,463.57287 c -2.30026,-2.51064 -4.86879,-9.82011 -4.91869,-13.99751 -0.0253,-2.11523 0.15678,-2.72986 1.0142,-3.42416 1.34844,-1.0919 1.54219,-1.07242 3.19878,0.32151 2.21769,1.86606 5.28462,10.08684 5.28462,14.1652 0,3.58528 -2.5094,5.19374 -4.57891,2.93496 z"
       id="path1286"
       inkscape:connector-curvature="0"
       transform="scale(0.26458333)" />
    <path
       style="opacity:1;fill:#49ee7f;fill-opacity:1;stroke:none;stroke-width:0.39020923;stroke-miterlimit:4;stroke-dasharray:none;stroke-dashoffset:0;stroke-opacity:1"
       d="m 335.16906,481.18783 c -0.62149,-0.67805 -1.61846,-1.94421 -2.2155,-2.8137 -1.27194,-1.85239 -1.55282,-1.55879 4.39601,-4.59508 3.96429,-2.02337 4.15392,-2.19046 3.85593,-3.39746 -0.47105,-1.90797 -0.93327,-2.13331 -2.60383,-1.26943 -0.83744,0.43306 -1.67629,0.61022 -1.86412,0.39369 -0.18782,-0.21653 -1.78343,-4.63655 -3.5458,-9.82226 -1.76237,-5.18572 -3.372,-9.61458 -3.57697,-9.84192 -0.42128,-0.46727 -2.85232,0.9339 -4.80239,2.76793 -1.41083,1.32688 -1.62405,2.43967 -0.70715,3.69059 0.54645,0.74552 0.71542,0.71818 2.32454,-0.37616 l 1.73525,-1.18012 2.74332,8.31864 c 2.20412,6.68359 2.6096,8.36415 2.06296,8.55019 -0.37419,0.12736 -1.16691,0.71812 -1.7616,1.31281 l -1.08125,1.08125 -2.24554,-2.89193 c -1.23504,-1.59055 -5.58055,-7.46506 -9.65668,-13.05446 l -7.41114,-10.16254 1.60871,-1.44053 c 1.97702,-1.77034 9.39556,-5.65663 15.12318,-7.92247 7.1932,-2.84561 16.28645,-4.93162 24.84397,-5.69924 l 3.18214,-0.28544 v 21.68986 21.68986 l -1.06071,0.21254 c -7.61667,1.5262 -10.85943,2.49415 -14.31818,4.2739 l -3.89517,2.0043 z m 16.39045,-14.27625 c 2.72055,-2.13999 3.26699,-6.11656 1.68857,-12.2881 -2.58015,-10.0883 -7.94927,-14.75153 -12.39969,-10.76948 l -1.53958,1.37755 0.0319,5.10459 c 0.0274,4.38981 0.21157,5.56496 1.31505,8.39234 1.62699,4.1687 3.84028,7.63113 5.4304,8.4952 1.80635,0.98157 3.98678,0.85724 5.47336,-0.3121 z"
       id="path1288"
       inkscape:connector-curvature="0"
       transform="scale(0.26458333)" />
    <path
       style="opacity:1;fill:#49ee7f;fill-opacity:1;stroke:none;stroke-width:0.39020923;stroke-miterlimit:4;stroke-dasharray:none;stroke-dashoffset:0;stroke-opacity:1"
       d="m 372.79847,480.35088 c -3.43533,-1.79535 -6.84212,-2.86647 -11.09477,-3.48829 l -3.77346,-0.55176 v -21.86719 -21.8672 h 1.19716 c 5.78726,0 16.91352,2.11399 23.98098,4.55639 4.56777,1.57854 13.54661,5.9599 16.94188,8.26704 l 1.62241,1.10246 -12.64487,17.43349 c -6.95469,9.58841 -12.92512,17.47937 -13.26765,17.53545 -0.34252,0.0561 -1.67528,-0.44809 -2.96168,-1.12039 z m 3.65713,-7.93635 0.7857,-1.64764 -2.81981,-1.42344 c -1.5509,-0.78289 -2.81982,-1.51937 -2.81982,-1.63663 0,-0.11726 2.33357,-5.32832 5.18572,-11.58014 2.85214,-6.25182 5.18571,-11.46394 5.18571,-11.58249 0,-0.40302 -3.99736,-1.92252 -6.6,-2.50883 -1.42607,-0.32125 -2.96839,-0.6873 -3.42738,-0.81344 -0.6108,-0.16786 -1.02153,0.21825 -1.53214,1.44031 -0.38369,0.9183 -0.69762,1.75968 -0.69762,1.86972 0,0.11004 1.485,0.56399 3.3,1.00878 1.815,0.44479 3.3,0.88022 3.3,0.96763 0,0.35555 -8.5663,18.85787 -8.87612,19.17151 -0.18426,0.18652 -1.46572,-0.18473 -2.84769,-0.825 -1.38197,-0.64028 -2.67801,-1.16414 -2.8801,-1.16414 -0.53453,0 -1.60985,2.79768 -1.22889,3.19726 0.30324,0.31806 14.34648,7.02634 14.92048,7.12733 0.14644,0.0258 0.61983,-0.6946 1.05196,-1.60079 z"
       id="path1290"
       inkscape:connector-curvature="0"
       transform="scale(0.26458333)" />
    <path
       style="opacity:1;fill:#49ee7f;fill-opacity:1;stroke:none;stroke-width:0.39020923;stroke-miterlimit:4;stroke-dasharray:none;stroke-dashoffset:0;stroke-opacity:1"
       d="m 388.37161,495.54667 c -1.46462,-3.00408 -2.7526,-4.709 -6.16412,-8.15955 l -4.31264,-4.36197 12.68808,-17.44578 c 6.97845,-9.59518 12.87336,-17.44578 13.0998,-17.44578 0.75162,0 8.65366,6.84898 11.45763,9.93073 7.09942,7.80272 12.79649,17.07684 16.63483,27.07939 0.18279,0.47634 -4.60202,2.21705 -18.76766,6.82764 -10.45715,3.40356 -19.86157,6.45484 -20.89872,6.7806 l -1.88571,0.5923 z m 9.07674,-4.98702 c 1.29404,-1.0785 1.46206,-0.7267 -3.33318,-6.9791 l -3.72748,-4.86017 1.5677,0.26201 c 6.55009,1.09475 14.61422,1.65218 16.87795,1.1667 4.21436,-0.90382 7.08262,-4.27981 7.08262,-8.33637 0,-3.64372 -3.93456,-9.07043 -8.1664,-11.26347 -1.24678,-0.64611 -1.43512,-0.60994 -2.98663,0.57345 l -1.65593,1.26304 2.36717,1.35195 c 6.16187,3.51918 8.02294,8.57943 4.20169,11.42434 -1.86764,1.39046 -5.46856,1.47926 -14.68369,0.36211 l -7.95951,-0.96493 -1.37431,0.9786 c -0.75587,0.53823 -1.31088,1.16842 -1.23335,1.40042 0.32655,0.97721 11.02281,14.56542 11.45422,14.5511 0.25985,-0.009 0.96596,-0.42698 1.56913,-0.92968 z"
       id="path1292"
       inkscape:connector-curvature="0"
       transform="scale(0.26458333)" />
    <path
       style="opacity:1;fill:#49ee7f;fill-opacity:1;stroke:none;stroke-width:0.39020923;stroke-miterlimit:4;stroke-dasharray:none;stroke-dashoffset:0;stroke-opacity:1"
       d=""
       id="path1294"
       inkscape:connector-curvature="0"
       transform="scale(0.26458333)" />
    <path
       style="opacity:1;fill:#49ee7f;fill-opacity:1;stroke:none;stroke-width:0.39020923;stroke-miterlimit:4;stroke-dasharray:none;stroke-dashoffset:0;stroke-opacity:1"
       d="m 412.14453,529.56341 c -11.27893,-3.65689 -20.56537,-6.68515 -20.63653,-6.72946 -0.0712,-0.0443 0.2173,-2.07306 0.64104,-4.50832 0.82987,-4.76933 0.68247,-9.35963 -0.45607,-14.20258 l -0.63554,-2.70339 8.77569,-2.82478 c 4.82663,-1.55363 14.21348,-4.59744 20.85966,-6.76402 l 12.08396,-3.93924 0.72526,2.6317 c 3.04897,11.06359 3.79552,22.73901 2.15778,33.74598 -0.5816,3.90888 -2.27314,11.18167 -2.70464,11.62864 -0.16691,0.1729 -9.53168,-2.67764 -20.81061,-6.33453 z m 13.29707,-7.90601 c 2.14204,-0.59492 4.31249,-3.10166 5.09,-5.87866 0.32454,-1.15914 0.49604,-3.86836 0.40081,-6.33167 -0.17921,-4.63572 -0.48158,-5.19267 -2.82638,-5.20626 l -1.24565,-0.007 0.23468,4.83214 c 0.21959,4.52135 0.16227,4.93827 -0.89117,6.48214 -0.94302,1.38205 -1.44784,1.6735 -3.10862,1.7947 -1.60315,0.117 -2.20946,-0.082 -3.16676,-1.03928 -1.06814,-1.06815 -1.18398,-1.55508 -1.18398,-4.97685 v -3.79285 h -1.62864 c -1.49805,0 -1.64925,0.1323 -1.88571,1.65 -0.1414,0.9075 -0.37875,2.42442 -0.52746,3.37093 -0.41497,2.64121 -2.45427,4.40764 -5.0885,4.40764 -2.76081,0 -4.42419,-1.37552 -5.0518,-4.17754 -0.55588,-2.48176 0.0847,-6.50218 1.45489,-9.1309 0.51783,-0.99347 0.9415,-1.91747 0.9415,-2.05334 0,-0.13586 -0.98853,-0.18236 -2.19675,-0.10334 l -2.19675,0.14369 -0.90829,2.59286 c -2.04344,5.8333 -0.94469,13.12337 2.3293,15.45466 3.82238,2.72177 8.39102,2.33979 11.19497,-0.93599 1.03852,-1.21328 1.67752,-1.6719 1.67752,-1.20399 0,1.21513 2.30749,3.61304 3.92838,4.08231 2.02814,0.58717 2.62442,0.59061 4.65441,0.0268 z"
       id="path1296"
       inkscape:connector-curvature="0"
       transform="scale(0.26458333)" />
    <path
       style="opacity:1;fill:#49ee7f;fill-opacity:1;stroke:none;stroke-width:0.39020923;stroke-miterlimit:4;stroke-dasharray:none;stroke-dashoffset:0;stroke-opacity:1"
       d="m 391.45632,558.80342 -12.74009,-17.55875 3.04645,-3.06625 c 3.73259,-3.75687 5.793,-6.61511 7.48258,-10.38001 0.76329,-1.70082 1.54345,-2.81698 1.90907,-2.73124 0.34006,0.0797 9.74096,3.11283 20.8909,6.74019 l 20.27262,6.5952 -0.70929,1.89052 c -3.02583,8.0649 -8.89941,17.84781 -14.85367,24.73993 -3.10971,3.59953 -11.43937,11.3061 -12.23799,11.32255 -0.17627,0.004 -6.05353,-7.89484 -13.06058,-17.55214 z m 21.77702,-1.59417 1.31767,-2.18149 -4.51706,-10.19351 c -4.00404,-9.03583 -4.70994,-10.31911 -6.21541,-11.29932 -0.94182,-0.61323 -1.82815,-0.90935 -1.98975,-0.66477 -0.16027,0.24257 -1.74143,2.7025 -3.51368,5.46652 -1.77225,2.76401 -3.31355,5.02548 -3.42511,5.02548 -0.11156,0 -1.3915,-0.78923 -2.8443,-1.75384 l -2.64147,-1.75384 -1.12037,1.40027 c -0.6162,0.77015 -1.12142,1.63541 -1.1227,1.92281 -10e-4,0.28739 1.16444,1.29724 2.59051,2.2441 1.42607,0.94686 2.59286,1.84575 2.59286,1.99754 0,0.15179 -0.45995,0.92192 -1.02212,1.71141 -1.00275,1.40824 -1.00499,1.44822 -0.11785,2.11089 1.4616,1.09178 2.55408,1.6098 2.5566,1.21225 10e-4,-0.20359 0.49065,-0.98041 1.08748,-1.72626 l 1.08515,-1.3561 7.7518,5.00585 c 4.26349,2.75322 7.85941,5.00757 7.99094,5.00967 0.13153,0.002 0.8321,-0.97785 1.55681,-2.17766 z"
       id="path1298"
       inkscape:connector-curvature="0"
       transform="scale(0.26458333)" />
    <path
       style="opacity:1;fill:#49ee7f;fill-opacity:1;stroke:none;stroke-width:0.39020923;stroke-miterlimit:4;stroke-dasharray:none;stroke-dashoffset:0;stroke-opacity:1"
       d=""
       id="path1300"
       inkscape:connector-curvature="0"
       transform="scale(0.26458333)" />
    <path
       style="opacity:1;fill:#49ee7f;fill-opacity:1;stroke:none;stroke-width:0.39020923;stroke-miterlimit:4;stroke-dasharray:none;stroke-dashoffset:0;stroke-opacity:1"
       d="m 403.61582,549.10351 -5.46443,-3.61992 2.28033,-3.53507 c 1.25418,-1.94428 2.44032,-3.58284 2.63586,-3.64123 0.19553,-0.0584 1.67038,2.80524 3.27743,6.36364 3.52726,7.8102 3.65094,8.12877 3.13924,8.08615 -0.2222,-0.0185 -2.863,-1.66261 -5.86843,-3.65357 z"
       id="path1302"
       inkscape:connector-curvature="0"
       transform="scale(0.26458333)" />
    <path
       style="opacity:1;fill:#49ee7f;fill-opacity:1;stroke:none;stroke-width:0.39020923;stroke-miterlimit:4;stroke-dasharray:none;stroke-dashoffset:0;stroke-opacity:1"
       d="m 357.93024,570.52354 v -21.8672 l 3.77346,-0.55175 c 4.51665,-0.66042 7.96323,-1.79553 12.0647,-3.97342 l 3.04389,-1.61631 1.11462,1.48436 c 4.86658,6.48091 24.31762,33.49412 24.31762,33.77181 0,1.16079 -12.69796,7.83839 -19.13615,10.06332 -7.06746,2.4424 -18.19372,4.55638 -23.98098,4.55638 h -1.19716 z m 31.10887,7.01719 c 0.009,-0.25929 -1.28336,-3.37727 -2.871,-6.92886 l -2.88663,-6.45744 -2.42205,1.8282 c -2.90271,2.19102 -4.47211,2.83667 -6.89513,2.83667 -3.3308,0 -6.5081,-4.14048 -5.81948,-7.58359 0.63884,-3.1942 5.34688,-6.08784 9.90512,-6.08784 2.27726,0 2.33555,-0.11425 1.31017,-2.56832 -0.82818,-1.98212 -1.10375,-1.98953 -6.72211,-0.18073 -5.53309,1.78135 -9.05061,5.69925 -9.05061,10.08079 0,2.42245 2.39254,7.38469 4.15721,8.62224 3.32478,2.33164 7.20796,2.43454 11.41534,0.3025 l 2.37838,-1.20522 1.16025,2.62353 c 0.63813,1.44294 1.16024,2.79213 1.16024,2.9982 0,0.20607 -2.33357,1.39477 -5.18571,2.64156 -2.85214,1.24678 -5.18571,2.46159 -5.18571,2.69957 0,0.23799 0.31589,1.04359 0.70199,1.79022 l 0.702,1.35751 7.06606,-3.14878 c 3.88633,-1.73183 7.07308,-3.36092 7.08167,-3.62021 z"
       id="path1304"
       inkscape:connector-curvature="0"
       transform="scale(0.26458333)" />
    <path
       style="opacity:1;fill:#49ee7f;fill-opacity:1;stroke:none;stroke-width:0.39020923;stroke-miterlimit:4;stroke-dasharray:none;stroke-dashoffset:0;stroke-opacity:1"
       d="m 348.03024,591.86796 c -11.36838,-1.28757 -22.41298,-5.04637 -32.8739,-11.18794 -1.61601,-0.94875 -2.9419,-1.87472 -2.94643,-2.05771 -0.006,-0.23694 23.79259,-33.37845 25.2954,-35.22614 0.0902,-0.11094 0.95721,0.23721 1.92664,0.77366 2.94183,1.62792 8.24601,3.33257 12.30128,3.95336 l 3.83987,0.58782 v 21.83986 21.83986 l -2.00357,-0.0612 c -1.10197,-0.0336 -3.59464,-0.24136 -5.53929,-0.46161 z m -5.8444,-9.40068 c 5.65706,-2.73854 9.92925,-11.29977 9.53716,-19.11193 -0.21183,-4.22066 -1.657,-6.65145 -4.88291,-8.21308 -7.25507,-3.51212 -13.97681,0.37373 -14.71424,8.50632 -0.31673,3.4929 0.44426,5.66559 2.69732,7.7011 2.61006,2.35803 6.3724,3.25892 9.16924,2.19557 1.51991,-0.57787 1.50058,-0.24267 -0.1213,2.10342 -3.14367,4.54742 -7.32165,5.23955 -11.98943,1.9862 l -2.45674,-1.7123 -0.58064,1.04479 c -0.99908,1.79769 -0.70701,2.8627 1.10755,4.03867 3.99132,2.58666 8.73801,3.15361 12.23399,1.46124 z"
       id="path1306"
       inkscape:connector-curvature="0"
       transform="scale(0.26458333)" />
    <path
       style="opacity:1;fill:#49ee7f;fill-opacity:1;stroke:none;stroke-width:0.39020923;stroke-miterlimit:4;stroke-dasharray:none;stroke-dashoffset:0;stroke-opacity:1"
       d="m 339.52068,569.97878 c -3.12598,-1.33324 -4.09254,-4.75798 -2.38952,-8.46662 1.30815,-2.84875 2.59341,-3.77143 5.25345,-3.77143 4.07926,0 6.2126,3.34112 4.91764,7.70172 -1.21795,4.10129 -4.42208,5.96916 -7.78157,4.53633 z"
       id="path1308"
       inkscape:connector-curvature="0"
       transform="scale(0.26458333)" />
    <path
       style="opacity:1;fill:#49ee7f;fill-opacity:1;stroke:none;stroke-width:0.39020923;stroke-miterlimit:4;stroke-dasharray:none;stroke-dashoffset:0;stroke-opacity:1"
       d="m 306.28653,574.34809 c -10.60315,-8.58391 -19.32364,-20.59712 -24.20884,-33.34973 l -0.81522,-2.12809 20.2348,-6.59334 c 11.12914,-3.62634 20.4965,-6.65546 20.81637,-6.73139 0.31987,-0.0759 1.26856,1.25741 2.1082,2.96296 2.38982,4.85442 6.99685,10.29537 11.04183,13.04053 0.3389,0.22999 -14.79977,21.5913 -24.78317,34.97011 -0.60375,0.80908 -0.88362,0.6708 -4.39397,-2.17105 z m -0.0878,-13.70177 1.30417,-1.06764 -3.77917,-5.48261 c -2.07855,-3.01544 -3.77917,-5.58323 -3.77917,-5.7062 0,-0.12297 5.88696,-1.64924 13.08214,-3.39171 7.19518,-1.74246 13.15036,-3.2275 13.23373,-3.30007 0.34691,-0.30199 -2.08906,-3.51045 -2.66932,-3.51581 -1.59187,-0.0147 -28.67345,6.78062 -29.27391,7.34542 -0.58278,0.54818 -0.25457,1.2478 2.35068,5.0108 1.66542,2.40551 4.07862,5.91169 5.36267,7.79152 1.28405,1.87982 2.45375,3.41022 2.59932,3.4009 0.14558,-0.009 0.85156,-0.49739 1.56886,-1.0846 z"
       id="path1310"
       inkscape:connector-curvature="0"
       transform="scale(0.26458333)" />
    <path
       style="opacity:1;fill:#49ee7f;fill-opacity:1;stroke:none;stroke-width:0.39020923;stroke-miterlimit:4;stroke-dasharray:none;stroke-dashoffset:0;stroke-opacity:1"
       d="m 302.34712,516.83735 c -4.51155,-2.31857 -4.25437,-9.37148 0.39248,-10.76371 3.9675,-1.18869 7.10493,1.31404 7.10493,5.66763 0,2.60111 -0.94451,4.12986 -3.11076,5.03497 -1.92501,0.80433 -2.91369,0.8181 -4.38665,0.0611 z"
       id="path1312"
       inkscape:connector-curvature="0"
       transform="scale(0.26458333)" />
    <path
       style="opacity:1;fill:#49ee7f;fill-opacity:1;stroke:none;stroke-width:0.39020923;stroke-miterlimit:4;stroke-dasharray:none;stroke-dashoffset:0;stroke-opacity:1"
       d="m 288.16222,517.67293 c -0.78556,-0.83619 -1.16383,-1.8988 -1.312,-3.68555 -0.17716,-2.13622 -0.0424,-2.70154 0.90377,-3.79097 0.67064,-0.77221 1.78792,-1.38792 2.81511,-1.55135 4.72477,-0.75174 7.28845,7.69674 2.93717,9.67931 -1.97752,0.90102 -4.13236,0.63834 -5.34405,-0.65144 z"
       id="path1314"
       inkscape:connector-curvature="0"
       transform="scale(0.26458333)" />
    <path
       style="opacity:1;fill:#49ee7f;fill-opacity:1;stroke:none;stroke-width:0.39020923;stroke-miterlimit:4;stroke-dasharray:none;stroke-dashoffset:0;stroke-opacity:1"
       d="m 280.48144,536.44072 c -0.12644,-0.21213 -0.68524,-2.21501 -1.24177,-4.45082 -2.32799,-9.35252 -2.96214,-20.31636 -1.71449,-29.64203 0.72054,-5.38577 1.94269,-11.17705 2.57152,-12.18547 0.31437,-0.50413 4.6767,0.75164 21.10726,6.07608 l 20.71099,6.71154 -0.60396,2.88107 c -0.82063,3.91466 -0.77499,9.49504 0.1128,13.79311 0.40502,1.96084 0.6702,3.61145 0.58928,3.66803 -0.0809,0.0566 -9.10252,3.00813 -20.04801,6.55898 -10.94549,3.55085 -20.20529,6.5729 -20.57732,6.71566 -0.37202,0.14276 -0.77986,0.086 -0.9063,-0.12615 z m 14.51283,-14.23688 c 0.77771,-0.44861 1.85982,-1.61041 2.4047,-2.58178 l 0.99068,-1.76612 0.74213,1.13264 c 2.97312,4.53756 11.89959,2.84795 13.98135,-2.6464 1.20967,-3.19267 0.0993,-9.42075 -2.15781,-12.10317 -1.70605,-2.02753 -3.49652,-2.83399 -6.29188,-2.83399 -3.97267,0 -6.98256,2.0636 -7.80825,5.3534 l -0.30338,1.20875 -1.14764,-1.36389 c -2.35303,-2.79642 -6.91481,-2.98752 -9.84756,-0.41254 -2.03664,1.78821 -2.7611,4.03866 -2.4695,7.67134 0.61477,7.65874 6.24875,11.60572 11.90716,8.34176 z"
       id="path1316"
       inkscape:connector-curvature="0"
       transform="scale(0.26458333)" />
    <path
       style="opacity:1;fill:#49ee7f;fill-opacity:1;stroke:none;stroke-width:0.39020923;stroke-miterlimit:4;stroke-dasharray:none;stroke-dashoffset:0;stroke-opacity:1"
       d="m 301.94312,479.88299 c -0.84542,-0.41674 -2.17131,-1.48001 -2.94643,-2.36282 -3.59821,-4.09813 0.18381,-10.03112 5.46487,-8.57295 2.39157,0.66035 5.28859,3.42531 5.65929,5.40132 0.86023,4.5854 -3.7599,7.71216 -8.17773,5.53445 z"
       id="path1318"
       inkscape:connector-curvature="0"
       transform="scale(0.26458333)" />
    <path
       style="opacity:1;fill:#49ee7f;fill-opacity:1;stroke:none;stroke-width:0.39020923;stroke-miterlimit:4;stroke-dasharray:none;stroke-dashoffset:0;stroke-opacity:1"
       d="m 302.06596,494.20839 c -11.14929,-3.61031 -20.45318,-6.73645 -20.67532,-6.94697 -0.22214,-0.21052 0.0241,-1.51629 0.54711,-2.90172 3.82091,-10.12052 9.66844,-19.29945 17.41268,-27.33288 4.08333,-4.2358 8.90867,-8.27866 9.35193,-7.8354 0.13648,0.13647 5.95178,8.06876 12.9229,17.62729 l 12.67477,17.37916 -1.60897,1.33283 c -2.64096,2.18767 -6.43168,7.29699 -8.45549,11.39668 l -1.89818,3.84522 z m 15.74818,-4.23552 c 3.00112,-2.96627 4.01489,-5.19111 4.02772,-8.83928 0.009,-2.52351 -0.23549,-3.51104 -1.38465,-5.59575 -3.69531,-6.70376 -14.228,-12.23254 -19.87115,-10.43071 -5.74074,1.833 -8.66051,9.18217 -5.67319,14.27965 2.76419,4.71672 9.52318,6.91795 13.73348,4.47263 2.62494,-1.52455 4.51689,-4.40247 4.89531,-7.44643 l 0.31001,-2.49365 1.74015,1.92782 c 3.7061,4.10579 3.35252,8.08966 -1.07098,12.06677 l -2.32718,2.09233 1.30043,0.97016 c 0.71524,0.53359 1.52375,0.97689 1.79669,0.9851 0.27294,0.008 1.40845,-0.88667 2.52336,-1.98864 z"
       id="path1320"
       inkscape:connector-curvature="0"
       transform="scale(0.26458333)" />
    <text
       xml:space="preserve"
       style="font-style:normal;font-weight:normal;font-size:10.58333302px;line-height:1.25;font-family:sans-serif;letter-spacing:0px;word-spacing:0px;fill:#000000;fill-opacity:1;stroke:none;stroke-width:0.26458332"
       x="125.24037"
       y="74.023239"
       id="text1324"
       transform="rotate(18.934225)"><tspan
         sodipodi:role="line"
         id="tspan1322"
         x="125.24037"
         y="74.023239"
         style="stroke-width:0.26458332">1X</tspan></text>
  </g>
</svg>
